<svg width="341" height="129" viewBox="0 0 341 129" fill="none" xmlns="http://www.w3.org/2000/svg">
<path d="M121.217 73.1523C119.492 73.1623 118.12 72.4483 117.406 70.9394C116.478 68.8816 116.799 65.6765 118.876 64.4359C120.968 63.1555 124.612 63.8804 124.925 66.7328H123.378C123.035 65.2013 120.747 64.9714 119.67 65.7804C118.844 66.4004 118.565 67.4375 118.557 68.4565C118.564 69.4981 118.86 70.5871 119.708 71.2098C120.785 72.0122 123.059 71.7944 123.442 70.2704H125.066C124.787 72.1574 123.036 73.189 121.217 73.1523Z" fill="white"/>
<path d="M128.386 73.1397C127.223 73.1648 126.004 72.3945 126.058 71.1069C126.003 69.8866 126.912 69.2237 128.015 69.0934C128.688 68.9729 129.805 69.0179 130.509 69.0097C130.504 68.4665 130.371 67.9986 129.926 67.7104C129.345 67.3683 128.14 67.4321 127.874 68.1862H126.276C126.661 65.7569 130.889 65.4014 131.71 67.6586C132.202 68.6415 131.946 71.8514 132.005 73.0495H130.623L130.585 72.2264C130.063 72.9194 129.202 73.1401 128.386 73.1397ZM128.744 71.8658C129.765 71.8998 130.633 71.1718 130.521 70.1161C129.832 70.1453 128.77 70.0317 128.124 70.2379C127.603 70.369 127.455 71.0558 127.759 71.4606C127.981 71.7506 128.374 71.8651 128.744 71.8658H128.744Z" fill="white"/>
<path d="M133.567 73.0496V66.2695H135.127V68.9971H137.94V66.2695H139.5V73.0496H137.94V70.3989H135.127V73.0496H133.567Z" fill="white"/>
<path d="M141.088 73.0496V66.2695H142.648V68.984H143.723L145.474 66.2695H147.239L145.078 69.4733L147.316 73.0499H145.512L143.837 70.3739H142.648V73.0499H141.088L141.088 73.0496Z" fill="white"/>
<path d="M150.105 73.0496V67.6587H147.88V66.2695H153.903V67.6587H151.665V73.0496H150.105Z" fill="white"/>
<path d="M154.28 70.065V68.6494H158.5V70.065H154.28Z" fill="white"/>
<path d="M160.2 73.0493V63.9531H167.592V73.0493H165.993V65.4071H161.799V73.0493H160.2Z" fill="white"/>
<path d="M172.293 73.1398C168.824 73.4067 167.881 68.2539 170.536 66.6164C172.951 65.1123 175.986 67.3671 175.312 70.1677H170.58C170.519 71.786 173.007 72.4653 173.726 71.0429H175.286C175.004 72.4698 173.636 73.1556 172.294 73.1401L172.293 73.1398ZM170.605 68.9971H173.853C173.909 66.9602 170.624 67.0305 170.605 68.9971Z" fill="white"/>
<path d="M178.248 73.0496V67.6587H176.023V66.2695H182.046V67.6587H179.808V73.0496H178.248Z" fill="white"/>
<path d="M185.953 73.1399C183.066 73.2414 182.009 70.1609 183.07 67.8584C183.759 66.3238 185.791 65.7769 187.284 66.4305C188.485 66.9633 189.062 68.264 189.023 69.5502C189.023 69.766 189.004 69.9502 188.972 70.1681H184.24C184.291 70.7434 184.538 71.2886 185.04 71.5833C185.704 71.9652 187.074 71.8959 187.386 71.0433H188.946C188.664 72.4702 187.295 73.156 185.954 73.1406L185.953 73.1399ZM184.265 68.9971H187.514C187.518 66.9383 184.339 67.0114 184.265 68.9971Z" fill="white"/>
<path d="M190.33 75.5457V66.2697H191.788L191.865 67.1957C192.679 66.0176 194.596 65.8731 195.676 66.6296C196.631 67.3089 196.961 68.4713 196.967 69.6663C196.961 70.8674 196.621 72.0185 195.644 72.683C194.642 73.3668 192.753 73.3222 191.89 72.3293V75.5457H190.33ZM193.706 71.7244C195.338 71.8119 195.706 69.8635 195.26 68.6494C194.812 67.2081 192.592 67.2468 192.082 68.6363C191.526 69.8961 192.078 71.8171 193.706 71.7241V71.7244Z" fill="white"/>
<path d="M201.332 73.1398C199.114 73.2221 197.961 71.1811 198.02 69.1638C198.006 67.1101 198.164 64.7198 200.513 64.1976C201.694 63.8429 203.057 63.8096 204.247 63.5674V65.124C203.399 65.3511 202.499 65.3278 201.625 65.4458C200.95 65.5261 200.279 65.6602 199.874 66.2434C199.579 66.6548 199.457 67.2487 199.452 67.7616C200.253 66.5618 202.174 66.393 203.288 67.0861C204.704 67.9489 204.913 70.1526 204.196 71.5376C203.625 72.6108 202.582 73.1477 201.332 73.1398ZM201.344 71.7503C203.562 71.8189 203.629 68.0295 201.369 68.1091C199.117 68.0549 199.084 71.7935 201.344 71.7503Z" fill="white"/>
<path d="M205.807 76.0862V74.5166C206.777 74.5495 207.39 74.1893 207.777 73.3199L204.912 66.2695H206.728L208.672 71.5314L210.206 66.2695H211.92L210.104 71.9431C209.381 74.1917 208.585 76.2982 205.807 76.0862Z" fill="white"/>
<path d="M212.822 75.5457V66.2697H214.28L214.356 67.1957C215.17 66.0176 217.088 65.8731 218.167 66.6296C219.122 67.3089 219.452 68.4713 219.458 69.6663C219.453 70.8674 219.113 72.0185 218.135 72.683C217.133 73.3668 215.244 73.3222 214.382 72.3293V75.5457H212.822ZM216.198 71.7244C217.83 71.8119 218.198 69.8635 217.751 68.6494C217.304 67.2081 215.083 67.2468 214.574 68.6363C214.018 69.8961 214.57 71.8171 216.198 71.7241V71.7244Z" fill="white"/>
<path d="M220.758 73.0496V66.2695H225.541V67.6587H222.318V73.0496H220.758Z" fill="white"/>
<path d="M229.448 73.1399C228.156 73.1458 227.139 72.6243 226.597 71.4931C225.882 69.9372 226.144 67.5346 227.735 66.6168C229.416 65.624 232.207 66.2288 232.39 68.521H230.855C230.613 67.4897 229.176 67.3387 228.483 67.8969C227.963 68.3203 227.778 69.0226 227.774 69.6785C227.777 70.3448 227.972 71.045 228.509 71.4417C229.196 71.945 230.666 71.8173 230.868 70.798H232.454C232.324 72.3495 230.881 73.165 229.448 73.1399Z" fill="white"/>
<path d="M233.673 73.0496V66.2695H235.233V68.984H236.308L238.059 66.2695H239.824L237.663 69.4733L239.901 73.0499H238.097L236.422 70.3739H235.233V73.0499H233.673L233.673 73.0496Z" fill="white"/>
<path d="M240.822 73.0496V66.2695H242.382V70.6823C242.528 70.3958 245.422 66.6421 245.682 66.2695H247.063V73.0496H245.516V68.6883C245.339 69.0025 242.523 72.6578 242.242 73.0496H240.822Z" fill="white"/>
<path d="M248.661 73.0496V66.2695H250.221V70.6823C250.311 70.5125 250.509 70.2431 250.63 70.1035L253.521 66.2695H254.901V73.0496H253.354V68.6883C253.227 68.8979 253.078 69.0962 252.932 69.2801L250.081 73.0496H248.661ZM251.884 65.5744C250.526 65.5737 249.555 64.9672 249.544 63.5547H250.873C250.884 64.2035 251.297 64.4364 251.896 64.4423C252.495 64.4364 252.908 64.2031 252.919 63.5547H254.25C254.271 64.9088 253.161 65.6235 251.884 65.5744Z" fill="white"/>
<path d="M117.777 85.2092V78.4292H123.723V85.2092H122.163V79.8183H119.337V85.2092H117.777Z" fill="white"/>
<path d="M128.369 85.2995C125.451 85.3956 124.331 82.3208 125.435 79.9789C126.489 77.7749 130.237 77.753 131.272 79.992C132.343 82.327 131.296 85.3928 128.369 85.2995ZM128.356 83.8709C129.976 83.958 130.44 82.0611 129.955 80.8219C129.518 79.4084 127.186 79.4156 126.745 80.8219C126.257 82.0741 126.724 83.9663 128.356 83.8709Z" fill="white"/>
<path d="M132.315 85.2223V83.8067C133.344 83.7803 133.431 82.5105 133.492 81.6971C133.555 80.6397 133.594 79.4581 133.607 78.4292H138.671V85.2092H137.111V79.8183H135.052C135.015 80.7176 135.008 81.7115 134.886 82.6104C134.809 83.2653 134.7 84.0095 134.297 84.5529C133.772 85.1801 133.193 85.1965 132.315 85.2223Z" fill="white"/>
<path d="M140.269 85.2092V78.4292H141.829V82.842C141.975 82.5555 144.868 78.8018 145.129 78.4292H146.509V85.2092H144.962V80.8479C144.785 81.1622 141.97 84.8174 141.689 85.2092H140.269Z" fill="white"/>
<path d="M149.675 85.2092V79.8183H147.45V78.4292H153.474V79.8183H151.236V85.2092H149.675Z" fill="white"/>
<path d="M157.381 85.2995C154.494 85.4011 153.437 82.3205 154.498 80.0181C155.187 78.4835 157.219 77.9366 158.712 78.5902C159.913 79.123 160.49 80.4236 160.451 81.7099C160.451 81.9257 160.432 82.1099 160.4 82.3277H155.668C155.719 82.9031 155.966 83.4483 156.468 83.743C157.132 84.1248 158.502 84.0555 158.814 83.203H160.374C160.092 84.6298 158.723 85.3157 157.382 85.3002L157.381 85.2995ZM155.693 81.1565H158.941C158.946 79.0976 155.767 79.1707 155.693 81.1565Z" fill="white"/>
<path d="M160.811 85.2092L163.189 81.7485L160.938 78.4292H162.755L164.212 80.7063L165.631 78.4292H167.409L165.158 81.787L167.575 85.2096H165.746L164.148 82.868L162.55 85.2096H160.81L160.811 85.2092Z" fill="white"/>
<path d="M168.504 85.2092V78.4292H170.064V81.1567H172.877V78.4292H174.437V85.2092H172.877V82.5586H170.064V85.2092H168.504Z" fill="white"/>
<path d="M176.029 85.2092V78.4292H177.589V82.842C177.679 82.6721 177.877 82.4028 177.998 82.2632L180.888 78.4292H182.269V85.2092H180.722V80.8479C180.595 81.0576 180.445 81.2559 180.3 81.4398L177.449 85.2092H176.029Z" fill="white"/>
<path d="M187.621 85.2092V82.8166C185.318 83.1792 183.425 82.8896 183.49 80.1275V78.4292H185.05C185.093 80.862 184.587 81.8851 187.621 81.414V78.4292H189.181V85.2092H187.621Z" fill="white"/>
<path d="M193.769 85.2995C190.881 85.4011 189.825 82.3205 190.885 80.0181C191.574 78.4835 193.607 77.9366 195.099 78.5902C196.3 79.123 196.877 80.4236 196.838 81.7099C196.838 81.9257 196.819 82.1099 196.787 82.3277H192.055C192.106 82.9031 192.353 83.4483 192.855 83.743C193.519 84.1248 194.889 84.0555 195.201 83.203H196.761C196.479 84.6298 195.111 85.3157 193.769 85.3002L193.769 85.2995ZM192.081 81.1565H195.329C195.334 79.0976 192.154 79.1707 192.081 81.1565Z" fill="white"/>
<path d="M201.066 85.2996C199.773 85.3054 198.756 84.7839 198.214 83.6528C197.499 82.0969 197.762 79.6943 199.352 78.7765C201.034 77.7836 203.825 78.3885 204.007 80.6806H202.472C202.23 79.6493 200.793 79.4984 200.1 80.0566C199.58 80.4799 199.395 81.1822 199.391 81.8382C199.394 82.5045 199.589 83.2047 200.126 83.6013C200.813 84.1046 202.283 83.977 202.485 82.9577H204.071C203.941 84.5091 202.498 85.3246 201.066 85.2996Z" fill="white"/>
<path d="M205.29 85.2092V78.4292H206.85V81.1437H207.925L209.677 78.4292H211.441L209.28 81.6329L211.518 85.2096H209.714L208.039 82.5335H206.85V85.2096H205.29L205.29 85.2092Z" fill="white"/>
<path d="M212.44 85.2092V78.4292H214V82.842C214.09 82.6721 214.287 82.4028 214.409 82.2632L217.299 78.4292H218.68V85.2092H217.133V80.8479C217.006 81.0576 216.856 81.2559 216.711 81.4398L213.859 85.2092H212.44Z" fill="white"/>
<path d="M220.278 85.2092V78.4292H221.838V82.842C221.928 82.6721 222.126 82.4028 222.247 82.2632L225.138 78.4292H226.518V85.2092H224.971V80.8479C224.845 81.0576 224.695 81.2559 224.55 81.4398L221.698 85.2092H220.278ZM223.501 77.7341C222.143 77.7334 221.173 77.1268 221.161 75.7144H222.49C222.501 76.3631 222.914 76.5961 223.514 76.6019C224.112 76.5961 224.526 76.3628 224.537 75.7144H225.867C225.888 77.0685 224.778 77.7832 223.501 77.7341Z" fill="white"/>
<path d="M231.864 88.2454V86.6758C232.834 86.7087 233.447 86.3485 233.833 85.4791L230.969 78.4287H232.785L234.728 83.6906L236.263 78.4287H237.976L236.161 84.1023C235.438 86.3509 234.642 88.4574 231.864 88.2454Z" fill="white"/>
<path d="M238.879 85.2092V78.4292H240.439V81.1567H243.252V78.4292H244.812V85.2092H243.252V82.5586H240.439V85.2092H238.879Z" fill="white"/>
<path d="M246.404 85.2092V78.4292H247.964V82.842C248.11 82.5555 251.004 78.8018 251.264 78.4292H252.645V85.2092H251.097V80.8479C250.921 81.1622 248.105 84.8174 247.824 85.2092H246.404Z" fill="white"/>
<path d="M254.243 85.2092V78.4292H257.299C257.852 78.4361 258.486 78.4693 258.975 78.7311C260.035 79.2162 260.067 81.0312 258.987 81.5554C260.427 81.8906 260.417 84.0469 259.3 84.733C258.815 85.0641 258.19 85.2082 257.606 85.2092H254.243ZM255.816 81.2078C256.382 81.1852 257.263 81.2847 257.798 81.073C258.287 80.932 258.478 80.2911 258.111 79.9597C257.856 79.758 257.463 79.748 257.146 79.7412H255.816V81.2075V81.2078ZM255.816 83.8455H257.414C257.935 83.8489 258.578 83.722 258.565 83.0862C258.592 82.3431 257.754 82.3112 257.21 82.3143H255.816V83.8455Z" fill="white"/>
<path d="M264.36 85.2995C261.473 85.4011 260.416 82.3205 261.477 80.0181C262.166 78.4835 264.198 77.9366 265.691 78.5902C266.892 79.123 267.469 80.4236 267.43 81.7099C267.43 81.9257 267.411 82.1099 267.378 82.3277H262.647C262.698 82.9031 262.944 83.4483 263.446 83.743C264.111 84.1248 265.48 84.0555 265.793 83.203H267.353C267.071 84.6298 265.702 85.3157 264.361 85.3002L264.36 85.2995ZM262.672 81.1565H265.92C265.925 79.0976 262.746 79.1707 262.672 81.1565Z" fill="white"/>
<path d="M268.737 87.7049V78.4289H270.195L270.272 79.3549C271.086 78.1767 273.004 78.0323 274.083 78.7888C275.038 79.4681 275.368 80.6305 275.374 81.8254C275.368 83.0266 275.028 84.1776 274.051 84.8422C273.049 85.526 271.16 85.4814 270.297 84.4885V87.7049H268.737ZM272.114 83.8836C273.745 83.9711 274.113 82.0227 273.667 80.8085C273.219 79.3672 270.999 79.406 270.489 80.7955C269.934 82.0553 270.485 83.9766 272.114 83.8836Z" fill="white"/>
<path d="M279.57 85.2996C278.278 85.3054 277.261 84.7839 276.719 83.6528C276.004 82.0969 276.266 79.6943 277.856 78.7765C279.538 77.7836 282.329 78.3885 282.511 80.6806H280.977C280.735 79.6493 279.297 79.4984 278.605 80.0566C278.085 80.4799 277.9 81.1822 277.895 81.8382C277.898 82.5045 278.093 83.2047 278.631 83.6013C279.317 84.1046 280.787 83.977 280.99 82.9577H282.576C282.445 84.5091 281.002 85.3246 279.57 85.2996Z" fill="white"/>
<path d="M283.795 85.2092V78.4292H285.355V82.842C285.5 82.5555 288.394 78.8018 288.654 78.4292H290.035V85.2092H288.488V80.8479C288.311 81.1622 285.495 84.8174 285.214 85.2092H283.795Z" fill="white"/>
<path d="M293.201 85.2092V79.8183H290.976V78.4292H296.999V79.8183H294.761V85.2092H293.201Z" fill="white"/>
<path d="M300.907 85.2995C298.019 85.4011 296.963 82.3205 298.023 80.0181C298.712 78.4835 300.745 77.9366 302.237 78.5902C303.438 79.123 304.015 80.4236 303.976 81.7099C303.976 81.9257 303.958 82.1099 303.925 82.3277H299.193C299.244 82.9031 299.491 83.4483 299.993 83.743C300.657 84.1248 302.027 84.0555 302.339 83.203H303.9C303.618 84.6298 302.249 85.3157 300.907 85.3002L300.907 85.2995ZM299.219 81.1565H302.467C302.472 79.0976 299.292 79.1707 299.219 81.1565Z" fill="white"/>
<path d="M306.861 85.2092V79.8183H304.636V78.4292H310.659V79.8183H308.421V85.2092H306.861Z" fill="white"/>
<path d="M117.777 97.7295V88.6333H125.168V97.7295H123.57V90.0873H119.376V97.7295H117.777H117.777Z" fill="white"/>
<path d="M129.871 97.8196C126.983 97.9211 125.927 94.8406 126.987 92.5381C127.676 91.0035 129.709 90.4566 131.201 91.1102C132.402 91.643 132.979 92.9436 132.94 94.2299C132.94 94.4457 132.921 94.6299 132.889 94.8478H128.157C128.208 95.4231 128.455 95.9683 128.957 96.263C129.621 96.6448 130.991 96.5755 131.303 95.723H132.863C132.581 97.1499 131.212 97.8357 129.871 97.8203L129.871 97.8196ZM128.183 93.6768H131.431C131.435 91.618 128.256 91.691 128.183 93.6768Z" fill="white"/>
<path d="M135.824 97.7293V92.3384H133.599V90.9492H139.622V92.3384H137.384V97.7293H135.824Z" fill="white"/>
<path d="M140.563 100.225V90.9494H142.021L142.098 91.8754C142.912 90.6972 144.83 90.5528 145.909 91.3093C146.864 91.9886 147.194 93.151 147.2 94.346C147.194 95.5471 146.854 96.6981 145.877 97.3627C144.875 98.0465 142.986 98.0019 142.123 97.009V100.225H140.563ZM143.94 96.4041C145.572 96.4916 145.94 94.5432 145.493 93.329C145.045 91.8877 142.825 91.9265 142.315 93.316C141.76 94.5758 142.312 96.4968 143.94 96.4038V96.4041Z" fill="white"/>
<path d="M150.481 97.8194C149.319 97.8444 148.099 97.0742 148.154 95.7866C148.099 94.5663 149.008 93.9034 150.111 93.7731C150.784 93.6526 151.901 93.6976 152.604 93.6893C152.6 93.1462 152.467 92.6783 152.022 92.3901C151.441 92.048 150.236 92.1118 149.97 92.8659H148.372C148.757 90.4365 152.985 90.0811 153.806 92.3383C154.297 93.3212 154.042 96.5311 154.1 97.7292H152.719L152.681 96.9061C152.159 97.5991 151.298 97.8197 150.481 97.8194ZM150.839 96.5455C151.86 96.5795 152.729 95.8515 152.617 94.7958C151.928 94.8249 150.866 94.7114 150.219 94.9176C149.698 95.0486 149.55 95.7355 149.855 96.1403C150.077 96.4302 150.47 96.5448 150.84 96.5455H150.839Z" fill="white"/>
<path d="M159.382 97.7295V88.6333H163.09C163.836 88.6426 164.58 88.717 165.168 89.1218C166.361 89.9387 166.281 92.2422 164.88 92.8529C166.802 93.2505 166.91 96.303 165.334 97.1826C164.597 97.6252 163.684 97.7206 162.795 97.7295H159.382ZM160.98 92.4419C161.488 92.4192 162.919 92.5019 163.384 92.3647C163.775 92.2683 164.105 92.0875 164.292 91.7406C164.48 91.4202 164.464 90.7429 164.222 90.4925C163.907 90.1429 163.391 90.1123 162.91 90.1003H160.98V92.4419H160.98ZM160.98 96.2625H162.885C163.72 96.2724 164.869 96.0755 164.816 95.002C164.87 94.0609 163.944 93.7665 163.166 93.7923H160.98V96.2625Z" fill="white"/>
<path d="M170.7 97.8196C167.812 97.9211 166.756 94.8406 167.816 92.5381C168.505 91.0035 170.538 90.4566 172.03 91.1102C173.231 91.643 173.808 92.9436 173.769 94.2299C173.769 94.4457 173.75 94.6299 173.718 94.8478H168.986C169.037 95.4231 169.284 95.9683 169.786 96.263C170.45 96.6448 171.82 96.5755 172.132 95.723H173.693C173.411 97.1499 172.042 97.8357 170.7 97.8203L170.7 97.8196ZM169.012 93.6768H172.26C172.265 91.618 169.085 91.691 169.012 93.6768Z" fill="white"/>
<path d="M174.499 97.7423V96.3267C175.528 96.3003 175.614 95.0306 175.675 94.2171C175.739 93.1597 175.778 91.9781 175.79 90.9492H180.854V97.7293H179.294V92.3384H177.235C177.198 93.2376 177.191 94.2315 177.069 95.1304C176.992 95.7854 176.884 96.5295 176.481 97.0729C175.955 97.7001 175.376 97.7162 174.499 97.742V97.7423Z" fill="white"/>
<path d="M182.452 97.7293V90.9492H184.012V95.362C184.102 95.1922 184.3 94.9228 184.422 94.7832L187.312 90.9492H188.693V97.7293H187.146V93.368C187.019 93.5776 186.869 93.7759 186.724 93.9598L183.872 97.7293H182.452Z" fill="white"/>
<path d="M190.291 97.7293V90.9492H191.851V93.6637H192.926L194.677 90.9492H196.442L194.281 94.153L196.519 97.7296H194.715L193.04 95.0536H191.851V97.7296H190.291L190.291 97.7293Z" fill="white"/>
<path d="M200.247 97.8195C197.329 97.9156 196.209 94.8408 197.313 92.4989C198.367 90.295 202.116 90.273 203.15 92.512C204.221 94.847 203.174 97.9128 200.247 97.8195ZM200.235 96.3909C201.854 96.4781 202.318 94.5811 201.833 93.3419C201.397 91.9284 199.064 91.9356 198.623 93.3419C198.135 94.5942 198.602 96.4863 200.235 96.3909Z" fill="white"/>
<path d="M204.848 97.7293V90.9492H209.631V92.3384H206.408V97.7293H204.848Z" fill="white"/>
<path d="M213.654 97.8195C210.735 97.9156 209.616 94.8408 210.719 92.4989C211.774 90.295 215.522 90.273 216.557 92.512C217.628 94.847 216.581 97.9128 213.654 97.8195ZM213.641 96.3909C215.26 96.4781 215.725 94.5811 215.24 93.3419C214.803 91.9284 212.47 91.9356 212.03 93.3419C211.541 94.5942 212.009 96.4863 213.641 96.3909Z" fill="white"/>
<path d="M117.734 55.8843V28.7531L141.339 28.6958V55.827H135.892V33.7546L123.181 33.8119V55.8843H117.734H117.734Z" fill="white"/>
<path d="M169.92 35.0556C167.614 30.636 163.372 28.4591 158.265 28.4746C153.109 28.4389 148.786 30.6079 146.463 35.0786C145.372 37.1728 144.833 39.5998 144.827 42.3599C144.661 50.316 149.986 56.3821 158.085 56.2198C166.215 56.4295 171.63 50.2718 171.522 42.3053C171.528 39.5456 170.992 37.1258 169.92 35.0556ZM163.928 48.6171C161.079 51.6884 155.972 51.9104 152.867 49.0885C149.081 45.974 148.934 39.1726 152.587 35.8831C154.133 34.3564 156.373 33.4884 158.602 33.6249C165.993 34.0789 168.906 43.5339 163.928 48.6171Z" fill="white"/>
<path d="M172.182 55.9989V50.8636C177.563 50.9329 176.168 43.5236 176.41 40.0193L176.524 28.7531L196.026 28.6958V55.827H190.541V33.7927L181.666 33.85C181.619 37.18 181.59 42.7046 181.457 45.8634C181.472 51.6626 179.297 56.099 172.182 55.9992V55.9989Z" fill="white"/>
<path d="M200.362 55.8987V28.7676H205.808V45.6388L218.635 28.8276L223.929 28.7676V55.8987H218.483V38.2103L205.009 55.8987H200.362H200.362Z" fill="white"/>
<path d="M235.264 55.8701V33.8358H226.224V28.7393H249.818V33.8358H240.749V55.8701H235.264Z" fill="white"/>
<path d="M252.264 55.8704V28.7393H271.689V33.8358H257.71V39.9671H270.742V44.8718H257.71V50.812H271.689V55.8701H252.264V55.8704Z" fill="white"/>
<path d="M273.359 55.8127L282.095 42.3047L273.432 28.6812H280.021L285.6 37.7252L291.097 28.7388H297.572L288.837 42.2663L297.572 55.8127H290.982L285.371 46.3092L279.567 55.8127H273.359H273.359Z" fill="white"/>
<path d="M30.3408 28.6084V100.56H101.998V28.6084H30.3408ZM84.8841 51.3045C84.4299 51.4404 83.0454 51.7111 83.0454 51.7111L82.9817 79.3088L90.9454 79.3274L90.9259 87.7504L73.7055 87.7099L73.788 52.0312L59.2218 51.9972L59.1294 72.4046C59.1257 73.9797 58.8951 75.5315 58.4607 77.0369C57.1799 81.3938 54.1314 85.062 50.0653 87.0838C48.7705 87.7429 47.3854 88.1961 45.9556 88.4894C44.4122 88.7824 42.801 88.8703 41.1679 88.7066L41.1877 80.1693C44.5448 80.5422 47.8842 78.6782 49.2752 75.6001C49.6626 74.8477 50.0677 73.8661 50.054 72.3833C50.0431 71.2107 50.0564 51.7563 50.0564 51.7563C46.5779 52.53 44.0303 55.3865 42.4235 58.2691L34.8274 53.926C35.6703 52.353 37.1857 49.8591 38.2097 48.6744C40.6213 45.8951 43.6453 44.0061 46.1363 43.3604C47.0287 43.1291 48.9161 42.7596 50.4813 42.7596C57.1867 42.7596 80.0716 42.7095 80.0716 42.7095C83.8151 42.7185 87.1777 40.7402 89.0003 37.4802L96.4321 41.8347C94.0843 46.5089 89.9016 49.9459 84.8844 51.3038L84.8841 51.3045Z" fill="#FEFEFE"/>
</svg>
