<svg width="156" height="53" viewBox="0 0 156 53" fill="none" xmlns="http://www.w3.org/2000/svg">
<g clip-path="url(#clip0_1_85)">
<path fill-rule="evenodd" clip-rule="evenodd" d="M39.0193 1.84273C38.8774 1.88322 38.7357 1.92497 38.5941 1.96798C27.4175 5.36236 20.22 15.5625 20.1982 26.5957C7.56541 32.0304 -0.34563 37.2913 0.571961 40.2727C1.48641 43.244 10.9445 43.2213 24.4028 40.7351C30.558 50.1445 42.448 54.7862 53.7897 51.3417C65.0996 47.9068 72.3353 37.5026 72.1833 26.3184C85.1818 20.7887 93.3715 15.4028 92.439 12.3721C91.503 9.33123 81.6182 9.42622 67.6553 12.0887C62.0085 3.87303 51.9172 -0.530173 41.7936 1.20962C40.7335 1.3618 39.8131 1.58081 39.0193 1.84273ZM84.5897 11.175C85.7159 11.5004 87.0573 11.9006 87.534 12.0865C88.3673 12.4116 89.0395 13.1708 88.9995 13.8968C88.9797 14.2497 88.6764 14.8777 88.4996 14.9969C88.6324 14.7216 88.8591 14.0228 88.6324 13.4993C88.3499 12.845 87.1112 12.2265 84.3398 12.2239C83.9066 12.2235 83.5319 12.2175 83.1956 12.212H83.195C82.0554 12.1937 81.352 12.1823 80.3023 12.4208C80.4461 12.4408 80.6375 12.4626 80.8608 12.4881L80.8654 12.4886L80.866 12.4887C81.9829 12.6161 83.8863 12.8333 84.6141 13.3433C85.5327 13.9862 85.6701 15.7522 83.8515 17.3339C81.2708 19.5785 78.8571 20.7012 76.977 21.5151C79.7183 20.0195 84.3821 17.1716 84.5932 14.7493C84.737 13.098 79.3147 13.4494 76.6755 13.9155C76.9648 13.9711 77.3128 14.0187 77.6805 14.0689L77.6874 14.0699C78.6223 14.1976 79.6818 14.3424 80.2275 14.6756C81.0875 15.2009 81.1971 15.8963 80.6253 16.4979L80.5992 16.5252C80.5198 16.6094 80.4867 16.6437 80.4815 16.6399C80.478 16.6373 80.4867 16.6166 80.5024 16.5817C80.5911 16.3815 80.888 15.7131 80.1521 15.3C79.0821 14.6996 74.0629 14.998 72.8143 15.2154C72.6647 15.2414 72.4965 15.2752 72.3167 15.3146C75.4646 15.3194 77.4398 15.8479 77.7791 16.9516C78.2076 18.343 75.9674 20.4199 71.8835 22.7535C71.6086 22.908 71.3222 23.0797 71.0206 23.2384C70.4012 23.5638 69.8265 23.8654 69.2942 24.1431C63.9983 26.827 56.6291 29.7246 48.316 32.2494C39.8169 34.8306 31.9162 36.5408 25.9677 37.2288C25.8365 37.2423 25.6952 37.2562 25.5416 37.2714C25.0622 37.3189 24.4629 37.3783 23.676 37.47C23.3162 37.512 22.9541 37.5345 22.6274 37.5458C22.6233 37.537 22.6315 37.5546 22.6274 37.5458C22.3406 37.5609 22.0486 37.5462 21.7761 37.5547C21.6476 37.5531 21.5339 37.5647 21.4659 37.5629C21.4621 37.5676 21.4697 37.5582 21.4659 37.5629C17.8971 37.6416 15.6434 37.1199 15.2783 35.9336C14.8744 34.6214 16.8444 32.6993 20.4956 30.5272C20.4548 30.2628 20.4184 29.9986 20.3862 29.7345C16.6583 31.8278 10.7896 35.7451 11.1369 36.8734C11.713 38.7455 16.7666 38.6719 19.3696 38.6176C16.6986 39.1821 11.1806 39.6636 10.3916 37.0997C9.82834 35.2698 16.2735 31.2297 20.3712 29.6089C20.3113 29.0977 20.2672 28.5872 20.2385 28.0779C8.54271 32.9604 1.22242 37.4684 1.95288 39.8418C2.6811 42.2079 11.2373 41.888 23.6205 39.4593C23.6181 39.455 23.623 39.4636 23.6205 39.4593C24.1786 39.3469 24.7607 39.2338 25.331 39.1154C25.3273 39.1093 25.3385 39.1218 25.331 39.1154C32.2271 37.6959 40.1942 35.6643 48.5953 33.1128C56.6644 30.6622 64.1317 28.0363 70.4836 25.481C70.6518 25.4115 70.6726 25.4157 70.7875 25.3704C71.2514 25.1864 71.9781 24.8817 72.7818 24.5391C84.4685 19.6591 91.7814 15.1542 91.0512 12.7819C90.6876 11.599 88.3668 11.0874 84.5897 11.175ZM21.8561 27.4115C21.924 29.5016 22.2681 31.6176 22.9131 33.7132C23.1995 34.6439 23.5374 35.545 23.9227 36.4142C25.3981 36.2646 27.0617 36.0307 28.8795 35.7172C27.9458 35.0857 27.2142 34.1458 26.8583 32.9892C26.4009 31.5031 26.659 29.9693 27.4369 28.753C26.3387 28.7883 25.4155 28.7977 24.7277 28.7902C25.4806 28.7084 26.4852 28.5862 27.664 28.4266C28.2953 27.59 29.1899 26.9377 30.2735 26.6087C31.8499 26.1299 33.4797 26.4403 34.7326 27.3124C35.6992 27.1381 36.683 26.9507 37.6648 26.7511L36.8077 24.2031C33.2725 24.7505 29.6206 24.8673 27.902 24.8423C29.9157 24.5506 34.3503 23.8831 35.9789 23.5458C36.1587 23.5086 36.3486 23.4695 36.5473 23.4288L34.4036 17.0554C33.4378 17.3403 32.3579 17.6091 31.2423 17.802C28.2708 18.3159 25.7862 18.0558 24.9153 17.8615C25.8935 17.8497 28.5565 17.7156 31.3824 17.2737C32.3908 17.1161 33.3842 16.9202 34.2905 16.7192L33.1477 13.3216C33.0342 12.9842 33.1254 12.6278 33.3542 12.3855C31.8464 12.4552 30.6635 12.398 30.0211 12.3208C30.0797 12.3222 30.4015 12.3162 31.2195 12.2806C31.9101 12.2505 34.0155 11.9332 36.3253 11.429L35.0014 7.4927C34.8493 7.48665 34.7197 7.47755 34.6164 7.46695C34.7037 7.44984 34.8235 7.42605 34.9691 7.39661L34.9316 7.28543C34.7541 6.7575 35.041 6.18648 35.5724 6.01014C36.1038 5.83374 36.6786 6.11873 36.8561 6.64666L36.9657 6.97244L37.1197 6.93799C38.448 6.63865 41.1483 5.84164 41.3362 5.65743C41.4874 5.50908 40.563 5.37249 39.2084 5.17251L39.206 5.17213L38.812 5.11381C38.6014 5.08247 38.3826 5.04963 38.1579 5.015C37.1578 4.86088 36.2348 4.85285 35.5848 4.88824C26.9658 9.01582 21.656 17.7958 21.8488 27.1307C21.857 27.2217 21.8659 27.3127 21.8754 27.4038L21.8561 27.4115ZM16.6838 35.5068C16.4009 34.5875 17.8861 33.2001 20.6776 31.5665C20.8504 32.4465 21.0708 33.3261 21.3405 34.2024C21.5885 35.0082 21.8726 35.7933 22.1906 36.5562C18.9698 36.7498 16.9661 36.4239 16.6838 35.5068ZM76.3739 17.3785C76.6789 18.3699 74.9276 19.9058 71.6991 21.7076C71.5275 20.8396 71.3094 19.9718 71.0432 19.1074C70.7556 18.1723 70.4192 17.2652 70.0376 16.3881C73.7422 16.0854 76.0683 16.385 76.3739 17.3785ZM27.4787 42.1165C32.7263 48.3708 40.9492 51.7044 49.3075 50.6174C49.3992 50.5659 49.4943 50.5113 49.5927 50.4535C50.6186 49.8512 51.9206 48.6955 52.4647 48.2124L52.5563 48.1313C52.5973 48.095 52.6314 48.065 52.6577 48.0423C52.8879 47.8437 53.1148 47.7803 53.4263 47.6933C53.5629 47.6551 53.7157 47.6123 53.8922 47.5517C54.3555 47.3925 56.8871 46.2489 58.0952 45.697C55.9683 46.4161 51.0205 47.9959 48.2421 48.5621C45.4638 49.1284 43.6988 49.0707 43.1636 48.9711C44.3701 48.7551 47.1633 48.2421 48.6845 47.9189C50.586 47.5149 53.9007 46.5198 54.2997 46.3408C54.5772 46.2163 55.124 45.4837 55.4944 44.9876L55.4961 44.9853L55.4997 44.9804C55.5583 44.9019 55.6124 44.8294 55.6602 44.7663C55.7424 44.6579 55.806 44.5774 55.8418 44.5424C55.9163 44.4693 56.0992 44.3924 56.4591 44.2411L56.4606 44.2404C57.0088 44.0101 57.9665 43.6074 59.5734 42.7844C61.7058 41.6927 64.2662 40.0871 65.2799 39.4207C63.5628 40.374 58.5493 42.6721 52.2324 44.2391C45.9153 45.8061 38.6211 45.9133 35.7636 45.7711C37.9856 45.6013 43.5434 44.9997 47.9992 43.9519C53.5688 42.642 57.7742 41.0987 58.0076 40.9121C58.17 40.7826 58.2008 40.2808 58.2205 39.9613C58.2286 39.8208 58.2356 39.7157 58.25 39.6936C58.286 39.6387 58.6241 39.5187 58.9361 39.4082C59.0347 39.3731 59.131 39.339 59.2139 39.3083C59.4899 39.206 61.1706 38.3901 61.9767 37.9951C60.1969 38.5665 56.0456 39.8703 53.6823 40.5141C51.319 41.1578 48.6426 41.528 47.5997 41.6328C48.1948 41.5485 49.7446 41.2705 51.1842 40.8333C52.9836 40.2868 56.6662 39.0874 57.2994 38.8373C57.9326 38.5872 56.9801 37.9512 56.0928 37.9431C55.7033 37.9395 54.7844 38.1904 53.1874 38.6262C51.146 39.1835 47.9968 40.0431 43.4301 41.0602C37.3467 42.415 30.6253 42.3505 27.4787 42.1165ZM52.9227 23.9158L53.1835 23.894C55.7999 23.6747 58.7262 23.4295 60.4288 22.8283C61.9343 22.2967 65.5177 19.5062 68.0665 17.394L67.7353 17.5906C64.5417 19.1244 58.6583 21.7639 52.9227 23.9158ZM39.5161 26.3585L38.6781 23.8672C39.1326 23.7731 39.5785 23.6705 40.0113 23.5587C40.1308 23.5278 40.2514 23.4961 40.3731 23.4636L41.215 25.9664C40.6561 26.1011 40.0885 26.2319 39.5161 26.3585ZM45.0349 24.9334L44.1261 22.3377C44.537 22.2037 44.948 22.0668 45.3561 21.9285C45.7696 21.7884 46.1802 21.6467 46.5843 21.5052L47.5563 24.1278C46.7274 24.407 45.8837 24.6777 45.0349 24.9334ZM44.0197 21.8671C44.6731 21.7196 45.5363 21.4838 46.4745 21.2087L45.5721 18.7738C44.697 18.9929 43.8631 19.184 43.08 19.3499L43.9656 21.8793L44.0197 21.8671ZM52.4419 19.3092C51.5115 19.686 50.0481 20.2543 48.3544 20.8722L49.3318 23.5098C53.3707 22.0595 56.8519 20.513 58.5215 19.695C58.4287 19.4803 58.2066 18.9741 58.0651 18.6654C57.9236 18.3568 57.1336 17.0131 56.7563 16.3797C56.8488 16.34 57.3298 16.0945 58.5133 15.4298C59.6964 14.7652 61.707 12.9832 62.5647 12.1754C60.7031 13.2265 55.4954 15.7935 49.5569 17.6526C48.8201 17.8832 48.0989 18.0956 47.3978 18.2909L48.2768 20.6629C49.8878 20.1618 51.4758 19.6376 52.4419 19.3092ZM38.4037 23.0512C38.9537 22.9394 39.5303 22.822 40.1168 22.7012L39.2223 20.0419C38.5172 20.1429 37.924 20.2114 37.4625 20.253L38.4037 23.0512ZM36.1904 16.4709L37.4352 20.1716C37.9129 20.0447 38.4836 19.8915 39.1141 19.7202L37.8045 15.8268C37.4345 15.9944 36.8782 16.2231 36.1904 16.4709ZM37.7994 15.8115C37.4137 15.9302 36.8344 16.0956 36.1258 16.2788L34.9319 12.7293C34.873 12.5543 34.7671 12.4081 34.6328 12.3C35.2376 12.2471 35.8776 12.1738 36.5426 12.0748L37.7994 15.8115ZM47.4275 17.3162C47.3138 17.3527 47.1971 17.3899 47.0778 17.4276L44.4102 10.2295C47.4082 9.40681 50.0388 8.53651 52.0211 7.50117C54.4767 6.2188 55.3604 5.71597 55.4954 5.62486C54.7035 6.25481 52.8503 7.66806 51.7726 8.28223C50.6948 8.89634 50.0835 9.19999 49.9126 9.27506C50.9098 10.0941 53.058 11.8612 53.6733 12.3775C54.2886 12.8938 54.9328 13.7838 55.178 14.1643C53.8727 14.8035 50.4955 16.3288 47.4275 17.3162ZM45.2772 17.978L42.5853 10.7142C41.489 10.9971 40.3545 11.2769 39.1939 11.5588C39.107 11.58 39.0202 11.6005 38.9337 11.6207C38.8079 11.65 38.6826 11.6783 38.5577 11.7056L38.8848 12.6779C38.9832 12.4103 39.1973 12.1873 39.4893 12.0864C40.0055 11.9081 40.5695 12.1792 40.7491 12.6919L42.8468 18.6836C43.6716 18.449 44.4973 18.2101 45.2772 17.978ZM43.1756 6.89812L43.991 9.0982C45.6642 8.46329 46.9359 7.92143 47.064 7.85022C47.2926 7.72291 46.6015 7.33134 45.8931 7.07233C45.3264 6.86511 43.9741 6.30965 43.3688 6.05784C43.4306 6.0314 43.7265 5.89602 44.4167 5.56612C45.1069 5.23622 46.1998 4.41159 46.6599 4.04056C44.9537 4.80159 41.0567 6.45932 39.1186 7.0017C38.4227 7.19648 37.7355 7.32039 37.1082 7.39615L38.3065 10.9587C38.767 10.8397 39.222 10.7145 39.6622 10.5839C40.5025 10.3346 41.3804 10.043 42.226 9.74486L41.4103 7.54369C41.2309 7.05948 41.4806 6.52234 41.968 6.3441C42.4555 6.16574 42.9962 6.41381 43.1756 6.89812ZM35.6704 28.1533C36.448 28.0653 37.2391 27.9663 38.0361 27.8552L38.5761 29.4607C37.9192 29.1002 37.1319 28.976 36.3551 29.1624C36.1657 28.7947 35.935 28.4569 35.6704 28.1533Z" fill="#25292E"/>
<path d="M90.7085 34.8293L89.4385 34.1146C88.855 34.9427 88.1116 35.3852 87.1048 35.3852C85.6753 35.3852 84.5311 34.2734 84.5311 32.6399C84.5311 30.9496 85.6979 29.8947 87.1048 29.8947C88.18 29.8947 88.844 30.3938 89.3358 31.2105L90.6053 30.4505C90.0335 29.3842 88.8208 28.5107 87.1507 28.5107C84.806 28.5107 82.9984 30.1669 82.9984 32.6399C82.9984 35.1129 84.737 36.7691 87.0938 36.7691C88.844 36.7691 89.7934 36.1452 90.7085 34.8293Z" fill="#25292E"/>
<path d="M91.2815 36.6103H92.8942L93.6951 34.5343H96.7838L97.5847 36.6103H99.1975L95.9603 28.6695H94.5186L91.2815 36.6103ZM94.2101 33.1957L94.942 31.2899C94.942 31.2899 95.091 30.9042 95.2395 30.4278C95.3879 30.9042 95.537 31.2899 95.537 31.2899L96.2688 33.1957H94.2101Z" fill="#25292E"/>
<path d="M101.189 36.6103H102.698V30.0535H105.147V28.6695H98.741V30.0535H101.189V36.6103Z" fill="#25292E"/>
<path d="M111.574 28.6695L109.834 32.5832L107.856 28.6695H106.151L109.057 34.3415L108.908 34.6705C108.713 35.1016 108.473 35.2263 108.119 35.2263C107.696 35.2263 107.318 35.1129 106.952 34.9314V36.5649C107.204 36.667 107.638 36.7691 108.165 36.7691C109.114 36.7691 109.709 36.3721 110.281 35.1129L113.221 28.6695H111.574Z" fill="#25292E"/>
<path d="M114.081 36.6103H115.59V33.8423H117.718C119.526 33.8423 120.715 32.9235 120.715 31.2559C120.715 29.5883 119.526 28.6695 117.718 28.6695H114.081V36.6103ZM115.59 32.5037V30.0081H117.672C118.725 30.0081 119.205 30.5072 119.205 31.2559C119.205 32.0046 118.725 32.5037 117.672 32.5037H115.59Z" fill="#25292E"/>
<path d="M122.051 28.6695V36.6103H123.561V33.2525H127.061V36.6103H128.571V28.6695H127.061V31.8685H123.561V28.6695H122.051Z" fill="#25292E"/>
<path d="M83.2385 49.5012H84.7712L88.0089 44.2603C88.0089 44.2603 88.2832 43.8065 88.3517 43.6363V49.5012H89.816V41.5604H88.2832L85.0461 46.7673C85.0461 46.7673 84.7712 47.221 84.7028 47.3912V41.5604H83.2385V49.5012Z" fill="#25292E"/>
<path d="M91.4659 41.5604V49.5012H92.9754V46.1434H96.4759V49.5012H97.986V41.5604H96.4759V44.7594H92.9754V41.5604H91.4659Z" fill="#25292E"/>
<path d="M99.0965 50.9305H100.503V49.5012H105.777V50.9305H107.184V48.1173H106.074V41.5604H100.744L100.561 44.7481C100.469 46.3135 100.252 47.1644 99.7832 48.1173H99.0965V50.9305ZM101.373 48.1173C101.785 47.1076 101.945 46.2795 102.037 44.714L102.139 42.899H104.565V48.1173H101.373Z" fill="#25292E"/>
<path d="M108.004 49.5012H109.617L110.417 47.4253H113.506L114.307 49.5012H115.92L112.682 41.5604H111.241L108.004 49.5012ZM110.932 46.0867L111.664 44.1809C111.664 44.1809 111.813 43.7952 111.962 43.3187C112.111 43.7952 112.259 44.1809 112.259 44.1809L112.991 46.0867H110.932Z" fill="#25292E"/>
<path d="M123.963 47.7202L122.693 47.0055C122.11 47.8336 121.366 48.276 120.36 48.276C118.93 48.276 117.786 47.1644 117.786 45.5308C117.786 43.8406 118.953 42.7856 120.36 42.7856C121.435 42.7856 122.098 43.2847 122.59 44.1015L123.86 43.3414C123.288 42.2751 122.075 41.4016 120.405 41.4016C118.061 41.4016 116.253 43.0578 116.253 45.5308C116.253 48.0038 117.992 49.66 120.348 49.66C122.098 49.66 123.048 49.0361 123.963 47.7202Z" fill="#25292E"/>
<path d="M127.233 49.5012H128.743V42.9444H131.191V41.5604H124.785V42.9444H127.233V49.5012Z" fill="#25292E"/>
<path d="M132.367 49.5012H133.876V46.7333H136.004C137.812 46.7333 139.001 45.8144 139.001 44.1468C139.001 42.4793 137.812 41.5604 136.004 41.5604H132.367V49.5012ZM133.876 45.3947V42.899H135.958C137.011 42.899 137.491 43.3981 137.491 44.1468C137.491 44.8956 137.011 45.3947 135.958 45.3947H133.876Z" fill="#25292E"/>
<path d="M140.337 49.5012H141.87L145.107 44.2603C145.107 44.2603 145.382 43.8065 145.45 43.6363V49.5012H146.914V41.5604H145.382L142.144 46.7673C142.144 46.7673 141.87 47.221 141.801 47.3912V41.5604H140.337V49.5012Z" fill="#25292E"/>
<path d="M156 47.7202L154.731 47.0055C154.147 47.8336 153.403 48.276 152.397 48.276C150.967 48.276 149.823 47.1644 149.823 45.5308C149.823 43.8406 150.99 42.7856 152.397 42.7856C153.472 42.7856 154.136 43.2847 154.627 44.1015L155.897 43.3414C155.325 42.2751 154.112 41.4016 152.443 41.4016C150.098 41.4016 148.29 43.0578 148.29 45.5308C148.29 48.0038 150.029 49.66 152.385 49.66C154.136 49.66 155.085 49.0361 156 47.7202Z" fill="#25292E"/>
</g>
<defs>
<clipPath id="clip0_1_85">
<rect width="156" height="53" fill="white"/>
</clipPath>
</defs>
</svg>
