<svg width="357" height="116" viewBox="0 0 357 116" fill="none" xmlns="http://www.w3.org/2000/svg">
<path d="M54.9394 45.1383C54.8603 48.7246 54.4346 52.5103 53.8926 54.774C54.0875 50.8735 53.6236 45.3703 52.732 41.0769C51.8413 36.7836 49.3248 29.6047 47.3128 26.288C45.4553 29.4483 43.1701 35.6548 41.9713 41.0379C40.7678 46.4263 40.7317 52.9399 40.7317 54.8952C40.4149 53.2464 39.6136 47.3739 39.8412 41.4675C40.0276 36.5973 41.1574 31.5944 41.7776 29.2926C44.1371 21.6039 46.8106 16.6908 47.3128 15.9089C47.8154 16.6908 51.1822 22.7391 52.927 29.0986C54.6653 35.4581 55.015 41.5476 54.9394 45.1383ZM47.3515 72.5973C46.3065 70.6074 44.6809 66.8265 44.5253 60.9803C44.4854 55.3228 46.7322 50.4821 47.389 49.4702C47.9718 50.4821 49.9055 54.6986 50.1361 60.4725C50.2935 66.1251 48.4355 70.5692 47.3515 72.5973ZM55.5582 29.176C53.4281 19.7728 48.0884 12.1242 47.3515 10.8745C46.1909 12.6303 41.9302 19.3813 39.7647 26.876C37.401 35.2252 37.0544 42.6371 37.8698 49.9362C38.6804 57.2359 41.7391 64.7242 41.7391 64.7242C43.365 68.6581 45.802 72.8674 47.389 74.9373C49.7108 71.8936 55.0544 62.8155 56.7195 50.9499C57.6468 44.3564 57.6872 38.5813 55.5582 29.176Z" fill="white"/>
<path d="M50.9673 77.1287H34.7677V88.09C34.7814 88.0744 34.794 88.0583 34.808 88.0445C38.6251 84.1968 44.8145 84.1968 48.6322 88.0445C52.4489 91.8925 52.4489 98.1336 48.6322 101.98C48.6164 101.998 48.5987 102.011 48.5832 102.027L48.5814 102.03C48.5623 102.05 48.5423 102.064 48.5242 102.081C44.7188 105.893 39.7428 107.8 34.7677 107.8C29.772 107.8 24.7742 105.879 20.9615 102.035C14.2438 95.2624 13.4483 84.7828 18.5685 77.1287C19.2592 76.0953 20.0558 75.112 20.9615 74.1976C24.7742 70.3562 29.772 68.4373 34.7677 68.4373V42.0913C15.5654 42.0913 0 57.785 0 77.1287C0 96.4872 15.5654 112.18 34.7677 112.18C44.7795 112.18 53.7979 107.911 60.143 101.088V77.1287H50.9673Z" fill="white"/>
<path d="M64.2593 42.0908H77.5126V46.4354H71.2082V77.1196H64.2593V42.0908Z" fill="white"/>
<path d="M77.3235 77.1196H84.1222L84.7675 67.8107H88.0454L88.6905 77.1196H95.4912L91.8658 42.0908H80.947L77.3235 77.1196ZM85.0161 63.9599L86.2076 46.4328H86.606L87.7957 63.9599H85.0161Z" fill="white"/>
<path d="M104.625 64.8584V71.4544C104.625 72.3558 105.319 72.6063 105.715 72.6063C106.363 72.6063 106.809 72.0565 106.809 71.4544V63.3083C106.809 62.2067 106.609 61.0075 104.029 61.0075H101.2V57.1538H104.127C106.113 57.1538 106.809 56.7028 106.809 54.5508V47.5858C106.809 46.986 106.363 46.4354 105.715 46.4354C105.319 46.4354 104.625 46.6855 104.625 47.5858V53.2993H97.6761V48.3458C97.6761 45.8933 97.9738 42.0908 102.837 42.0908H108.599C113.466 42.0908 113.761 45.8933 113.761 48.3458V53.9506C113.761 57.7541 111.13 58.8052 109.046 58.7046V59.0558C113.712 58.9554 113.761 62.5579 113.761 63.8077V70.8653C113.761 73.3166 113.466 77.1196 108.599 77.1196H102.837C97.9738 77.1196 97.6761 73.3166 97.6761 70.8653V64.8584H104.625Z" fill="white"/>
<path d="M117.413 42.0908H133.498V77.1196H126.552V46.4354H124.365V77.1196H117.413V42.0908Z" fill="white"/>
<path d="M137.56 77.1196H144.509V65.2096H148.48C153.346 65.2096 153.643 61.4063 153.643 58.9554V48.3458C153.643 45.8933 153.346 42.0908 148.48 42.0908H137.56V77.1196ZM144.509 61.3588V46.4354H145.405C146.149 46.4354 146.695 47.0852 146.695 48.185V59.6055C146.695 60.7072 146.149 61.3588 145.405 61.3588H144.509Z" fill="white"/>
<path d="M157.018 70.8653C157.018 73.3166 157.318 77.1196 162.182 77.1196H167.94C172.803 77.1196 173.103 73.3166 173.103 70.8653V48.3458C173.103 45.8933 172.803 42.0908 167.94 42.0908H162.182C157.318 42.0908 157.018 45.8933 157.018 48.3458V70.8653ZM166.153 71.4544C166.153 72.0565 165.708 72.6063 165.063 72.6063C164.663 72.6063 163.969 72.3558 163.969 71.4544V47.5858C163.969 46.6855 164.663 46.4354 165.063 46.4354C165.708 46.4354 166.153 46.986 166.153 47.5858V71.4544Z" fill="white"/>
<path d="M194.751 42.0908H203.784V77.1196H196.833V55.153H196.586L193.013 77.1196H187.452L183.88 55.153H183.63V77.1196H176.681V42.0908H185.714L190.232 66.7109L194.751 42.0908Z" fill="white"/>
<path fill-rule="evenodd" clip-rule="evenodd" d="M64.2562 87.9907H203.775V112.141H64.2562V87.9907ZM73.6451 95.9168L74.4684 101.615H72.8226L73.6271 95.9168H73.6451ZM78.3855 106.539L75.5412 93.5897H71.8387L69.0478 106.539H72.125L72.5186 103.942H74.8793L75.3445 106.539H78.3855ZM82.8536 104.214H83.5515C84.7143 104.214 85.0536 103.763 85.0536 102.591C85.0536 101.509 84.7143 100.913 83.6226 100.913H82.8536V104.214ZM82.8536 98.5866H83.7659C84.6422 98.5866 84.9824 98.1534 84.9824 97.1264C84.9824 96.3685 84.6422 95.9186 83.7659 95.9186H82.8536V98.5866ZM79.8669 93.5915H84.803C86.3062 93.5915 87.97 94.5112 87.97 96.8374C87.97 98.6054 86.8969 99.4348 86.2164 99.5782C87.4154 100.084 88.0948 100.913 88.0948 102.717C88.0948 105.134 86.8071 106.541 84.1772 106.541H79.8669V93.5915ZM91.7854 106.541H94.6297V96.0444H96.901V93.5915H89.3524V96.0444H91.7854V106.541ZM101.428 96.7478V103.312C101.428 104.088 101.965 104.466 102.502 104.466C103.021 104.466 103.574 104.088 103.574 103.312V96.7478C103.574 96.0078 103.021 95.6833 102.502 95.6833C101.965 95.6833 101.428 96.0078 101.428 96.7478ZM106.669 96.9639V102.771C106.669 105.349 105.4 106.847 102.502 106.847C99.6393 106.847 98.334 105.349 98.334 102.771V96.9452C98.334 94.9079 99.6032 93.3023 102.52 93.3023C105.435 93.3023 106.669 94.9433 106.669 96.9639ZM114.005 98.8411L113.003 93.5933H108.692V106.543H111.644V101.979C111.644 100.23 111.536 97.2548 111.483 96.3527H111.5L113.415 106.543H115.561L117.476 96.3527H117.493C117.421 97.4348 117.332 100.753 117.332 101.996V106.543H120.284V93.5933H115.973L114.97 98.8411C114.857 99.4278 114.757 100.455 114.663 101.426C114.61 101.977 114.558 102.511 114.507 102.935H114.47C114.422 102.521 114.378 102.042 114.332 101.548C114.243 100.576 114.148 99.5465 114.005 98.8411ZM127.047 101.619L126.224 95.9202H126.206L125.401 101.619H127.047ZM128.12 93.5933L130.964 106.543H127.923L127.458 103.945H125.097L124.704 106.543H121.626L124.417 93.5933H128.12ZM133.469 106.543H136.314V96.0462H138.586V93.5933H131.037V96.0462H133.469V106.543ZM143.113 93.5952V96.8045C143.113 97.6104 142.987 98.623 142.865 99.6085C142.771 100.367 142.678 101.109 142.647 101.729H142.665L145.277 93.5952H148.229V106.544H145.277V103.532C145.277 102.633 145.457 101.433 145.623 100.326C145.713 99.7223 145.8 99.1465 145.85 98.6629H145.833L143.166 106.544H140.161V93.5952H143.113ZM153.9 93.3059C151.682 93.3059 150.018 94.8565 150.018 97.5442H152.863C152.863 96.2097 153.113 95.6328 153.9 95.6328C154.634 95.6328 154.938 96.2461 154.938 97.22C154.938 98.1387 154.456 98.6441 154.008 98.6441H153.274V100.971H153.722C154.705 100.971 155.081 101.457 155.081 102.665C155.081 104.109 154.759 104.524 153.954 104.524C153.274 104.524 152.863 104.109 152.863 102.665H150.018C150.018 106.003 152.165 106.851 154.079 106.851C156.53 106.851 158.176 105.641 158.176 103.081C158.176 100.755 157.245 100.213 155.94 99.727H155.904C157.21 99.149 157.729 98.3383 157.729 96.7324C157.729 94.9116 156.351 93.3059 153.9 93.3059ZM164.759 101.621L163.936 95.922H163.917L163.113 101.621H164.759ZM165.831 93.5952L168.676 106.544H165.634L165.169 103.947H162.809L162.416 106.544H159.338L162.129 93.5952H165.831ZM175.099 104.092H173.077V93.5952H169.983V106.544H175.832V109.214H178.856V104.092H178.195V93.5952H175.099V104.092ZM183.487 93.5968V96.8064C183.487 97.6107 183.363 98.6212 183.24 99.6052C183.146 100.365 183.053 101.11 183.022 101.731H183.04L185.653 93.5968H188.604V106.546H185.653V103.534C185.653 102.634 185.833 101.433 185.997 100.326C186.089 99.723 186.174 99.1476 186.224 98.6647H186.206L183.539 106.546H180.536V93.5968H183.487ZM195.178 95.9239H195.894V99.2416H195.142C194.372 99.2416 193.871 98.5201 193.871 97.5277C193.871 96.5361 194.372 95.9239 195.178 95.9239ZM193.46 106.546L195.284 101.568H195.894V106.546H198.988V93.5968H194.284C192.082 93.5968 190.779 95.2918 190.779 97.3487C190.779 98.9527 191.529 100.269 192.583 100.829L190.169 106.546H193.46Z" fill="white"/>
</svg>
