<svg width="209" height="30" viewBox="0 0 209 30" fill="none" xmlns="http://www.w3.org/2000/svg">
<path d="M3.968 22.752H9.83477e-07L9.472 0.287952H12.928L22.4 22.752H18.208L15.872 17.024H6.304L3.968 22.752ZM14.368 13.344L11.104 5.37595L7.808 13.344H14.368ZM28.379 22.752H24.699V8.35195H28.027L32.923 14.368L37.563 8.35195H40.795V22.752H37.115V13.952L32.859 19.328H32.763L28.379 13.952V22.752ZM54.5825 8.35195H58.7745L53.1105 22.752C52.0865 25.248 51.1692 26.9333 50.3585 27.808C49.5692 28.704 48.6305 29.152 47.5425 29.152C46.5185 29.152 45.4838 28.7786 44.4385 28.032L45.6225 25.248C46.1772 25.5893 46.6785 25.76 47.1265 25.76C48.0012 25.76 48.7372 25.0133 49.3345 23.52L49.6545 22.752L42.9985 8.35195H47.4145L50.7745 16.224C50.8172 16.3306 51.0518 17.024 51.4785 18.304C51.6065 17.5146 51.7772 16.8106 51.9905 16.192L54.5825 8.35195ZM64.6603 29.152H60.9803V8.35195H64.6603V9.72795C65.1296 9.21595 65.7696 8.79995 66.5803 8.47995C67.3909 8.15995 68.2336 7.99995 69.1083 7.99995C71.0923 7.99995 72.6709 8.68262 73.8443 10.048C75.0389 11.4346 75.6363 13.1946 75.6363 15.328C75.6363 17.568 74.9323 19.424 73.5243 20.896C72.1163 22.368 70.2816 23.104 68.0203 23.104C66.5696 23.104 65.4496 22.8693 64.6603 22.4V29.152ZM67.9563 11.456C66.6763 11.456 65.5776 11.9786 64.6603 13.024V18.848C65.5349 19.4026 66.5483 19.68 67.7003 19.68C68.9163 19.68 69.8869 19.2853 70.6123 18.496C71.3589 17.7066 71.7323 16.6826 71.7323 15.424C71.7323 14.2293 71.3909 13.2693 70.7083 12.544C70.0469 11.8186 69.1296 11.456 67.9563 11.456ZM89.736 17.92L91.464 20.608C90.248 22.272 88.3387 23.104 85.736 23.104C83.4107 23.104 81.5227 22.4106 80.072 21.024C78.6427 19.6586 77.928 17.8346 77.928 15.552C77.928 13.3973 78.632 11.6053 80.04 10.176C81.448 8.72529 83.2293 7.99995 85.384 7.99995C87.944 7.99995 89.8747 8.65062 91.176 9.95195L89.448 12.864C88.4667 11.9253 87.272 11.456 85.864 11.456C84.7973 11.456 83.8587 11.84 83.048 12.608C82.2587 13.3333 81.864 14.3146 81.864 15.552C81.864 16.7893 82.2693 17.792 83.08 18.56C83.9333 19.3066 84.9147 19.68 86.024 19.68C87.4533 19.68 88.6907 19.0933 89.736 17.92ZM103.41 8.35195H108.05L102.514 15.2L108.722 22.752H103.922L98.2258 15.488L103.41 8.35195ZM98.0978 22.752H94.4178V8.35195H98.0978V22.752ZM121.287 13.632L114.567 22.752H110.887V8.35195H114.567V17.472L121.287 8.35195H124.967V22.752H121.287V13.632ZM139.474 13.632L132.754 22.752H129.074V8.35195H132.754V17.472L139.474 8.35195H143.154V22.752H139.474V13.632ZM131.218 1.15195H134.578C134.578 1.85595 134.717 2.42129 134.994 2.84795C135.271 3.27462 135.687 3.48795 136.242 3.48795C136.733 3.48795 137.106 3.27462 137.362 2.84795C137.639 2.39995 137.778 1.83462 137.778 1.15195H141.138C141.138 2.64529 140.701 3.85062 139.826 4.76795C138.951 5.66395 137.757 6.11195 136.242 6.11195C134.578 6.11195 133.319 5.67462 132.466 4.79995C131.634 3.90395 131.218 2.68795 131.218 1.15195ZM159.035 22.752H155.099V0.351952H167.739V4.03195H159.035V22.752ZM189.174 22.752H185.238V4.03195H175.254V22.752H171.318V0.351952H189.174V22.752ZM201.076 23.104C199.348 23.104 197.812 22.752 196.468 22.048C195.145 21.344 194.121 20.4373 193.396 19.328L195.54 16.672C196.244 17.4826 197.087 18.144 198.068 18.656C199.049 19.168 199.988 19.424 200.884 19.424C202.1 19.424 203.092 19.136 203.86 18.56C204.628 17.9626 205.012 17.1413 205.012 16.096C205.012 15.1786 204.66 14.464 203.956 13.952C203.273 13.4186 202.303 13.152 201.044 13.152H198.74V9.47195H200.916C201.812 9.47195 202.569 9.20529 203.188 8.67195C203.828 8.11729 204.148 7.40262 204.148 6.52795C204.148 5.63195 203.849 4.93862 203.252 4.44795C202.676 3.93595 201.887 3.67995 200.884 3.67995C199.071 3.67995 197.556 4.49062 196.34 6.11195L194.068 3.48795C194.836 2.44262 195.871 1.59995 197.172 0.959951C198.473 0.319952 199.86 -4.76837e-05 201.332 -4.76837e-05C203.38 -4.76837e-05 205.012 0.543952 206.228 1.63195C207.444 2.71995 208.052 4.22395 208.052 6.14395C208.052 7.08262 207.785 7.99995 207.252 8.89595C206.74 9.79195 206.004 10.5173 205.044 11.072V11.168C206.324 11.488 207.284 12.1173 207.924 13.056C208.585 13.9733 208.916 15.1146 208.916 16.48C208.916 18.464 208.137 20.064 206.58 21.28C205.044 22.496 203.209 23.104 201.076 23.104Z" fill="white"/>
</svg>
