<svg width="179" height="49" viewBox="0 0 179 49" fill="none" xmlns="http://www.w3.org/2000/svg">
<g clip-path="url(#clip0_1_241)">
<mask id="mask0_1_241" style="mask-type:luminance" maskUnits="userSpaceOnUse" x="0" y="0" width="179" height="49">
<path d="M178.498 0H0.256714V49H178.498V0Z" fill="white"/>
</mask>
<g mask="url(#mask0_1_241)">
<path d="M46.8999 21.5469H60.0443V48.6717H69.6708V21.5469H83.062V12.8691H46.8999V21.5469Z" fill="white"/>
<path d="M43.7891 12.7954H34.0759V48.6716H43.7891V12.7954Z" fill="white"/>
<path d="M0.256714 12.7954V48.6716H9.96989V12.7954H0.256714Z" fill="white"/>
<path d="M24.6163 12.7954L9.96973 48.6716H19.9833L34.069 12.7954H30.2039H24.6163Z" fill="white"/>
<path d="M128.925 12.7954H127.636H122.042L112.402 36.4116L102.763 12.7954H97.175H93.3098H86.1665V48.6716H95.8795V19.3439L107.395 48.6716H117.409L128.925 19.3439V48.6716H138.638V12.7954H131.494H128.925Z" fill="white"/>
<path d="M38.9292 -0.000257569C37.9904 0.0182099 37.078 0.314388 36.3064 0.851105C35.5348 1.38782 34.9385 2.14117 34.5922 3.0166C34.2459 3.89203 34.1651 4.85054 34.36 5.77184C34.5548 6.69315 35.0167 7.5362 35.6875 8.19522C36.3584 8.8542 37.2084 9.29979 38.1307 9.47596C39.0531 9.65221 40.0068 9.5513 40.8723 9.18587C41.7377 8.82036 42.4762 8.20663 42.9951 7.42174C43.514 6.63683 43.7903 5.71567 43.7891 4.77386C43.7751 3.49463 43.2553 2.27331 42.3441 1.37816C41.4328 0.483014 40.2046 -0.0127561 38.9292 -0.000257569Z" fill="white"/>
<path d="M169.078 31.2364C168.952 36.7538 165.267 40.4565 159.92 40.4565H159.72C156.842 40.403 154.472 39.4723 152.864 37.7782C151.254 36.0842 150.427 33.5799 150.48 30.607C150.418 29.3679 150.618 28.1296 151.068 26.9739C151.518 25.8183 152.208 24.7716 153.091 23.9032C153.975 23.0348 155.031 22.3644 156.193 21.9364C157.354 21.5084 158.592 21.3325 159.826 21.4204C161.056 21.3769 162.282 21.5847 163.43 22.0313C164.578 22.4779 165.623 23.154 166.502 24.0183C167.392 24.9908 168.078 26.1325 168.519 27.3758C168.961 28.6192 169.149 29.9388 169.072 31.2565L169.078 31.2364ZM169.833 15.3071C166.86 13.5838 163.48 12.6913 160.046 12.7225C159.154 12.7246 158.263 12.7761 157.376 12.8764C152.162 13.4523 147.97 15.6351 144.913 19.3647C142.042 22.8666 140.8 27.1386 141.121 32.4081C141.241 36.0576 142.542 39.5687 144.826 42.4117C148.497 46.9113 153.505 49.0606 160.654 49.1745H160.734H160.814L161.742 49.054C162.989 48.9145 164.224 48.6908 165.441 48.3844C169.087 47.4705 172.346 45.4048 174.733 42.4921C177.056 39.5547 178.367 35.9416 178.471 32.1939C178.785 24.5138 175.881 18.8023 169.84 15.3071" fill="white"/>
</g>
</g>
<defs>
<clipPath id="clip0_1_241">
<rect width="179" height="49" fill="white"/>
</clipPath>
</defs>
</svg>
